<svg width="256" height="256" xmlns="http://www.w3.org/2000/svg">
    <g fill="none" fill-rule="evenodd">
        <rect fill="var(--nu-bg-color)" width="256" height="256" rx="71"/>
        <path d="M204.923 36c1.946 0 3.612.686 4.998 2.06 1.386 1.372 2.079 3.023 2.079 4.95v67.98c0 1.927-.693 3.578-2.079 4.95-1.386 1.374-3.052 2.06-4.998 2.06-1.946 0-3.612-.686-4.998-2.06-1.386-1.372-2.079-3.023-2.079-4.95v-5.697C189 113.764 178.385 118 166 118c-11.978 0-22.311-3.976-31-11.927v32.774c.164-.166.33-.332.496-.497C145.161 128.783 156.83 124 170.5 124s25.34 4.783 35.004 14.35C215.168 147.917 220 159.467 220 173c0 1.925-.692 3.573-2.077 4.944-1.385 1.37-3.05 2.056-4.994 2.056h-77.167l.115.573c1.368 6.473 4.57 12.203 9.608 17.19C152.379 204.587 160.718 208 170.5 208c8.84 0 16.441-2.77 22.805-8.313 1.297-.991 2.77-1.487 4.42-1.487 1.945 0 3.61.685 4.994 2.056 1.385 1.371 2.077 3.019 2.077 4.944 0 1.925-.677 3.588-2.033 4.988C193.63 218.063 182.875 222 170.5 222c-13.671 0-25.34-4.783-35.004-14.35-2.944-2.915-5.44-6.014-7.488-9.298-2.049 3.29-4.55 6.396-7.504 9.316C110.839 217.223 99.17 222 85.5 222s-25.34-4.777-35.004-14.332C40.832 198.113 36 186.578 36 173.06c0-13.516 4.832-25.052 14.496-34.607 9.665-9.554 21.333-14.332 35.004-14.332 13.363 0 24.812 4.565 34.347 13.694V81.53c0-8.697-3.112-16.125-9.334-22.284C104.292 53.09 96.787 50.01 88 50.01s-16.292 3.079-22.513 9.237c-6.222 6.159-9.333 13.587-9.333 22.284v29.393c0 1.926-.693 3.575-2.079 4.947-1.386 1.372-3.052 2.058-4.998 2.058-1.946 0-3.612-.686-4.998-2.058-1.386-1.372-2.079-3.021-2.079-4.947v-67.92c0-1.925.693-3.575 2.079-4.946C45.465 36.686 47.13 36 49.077 36c1.946 0 3.612.686 4.998 2.058 1.386 1.371 2.079 3.02 2.079 4.947v5.691C65 40.232 75.615 36 88 36c12.68 0 23.516 4.451 32.51 13.353 6.915 6.845 11.172 14.768 12.77 23.77l.11.007c1.641 12.227 3.875 15.439 10.097 21.602 6.221 6.164 13.726 9.246 22.513 9.246s16.292-3.082 22.513-9.246c6.222-6.163 9.333-13.598 9.333-22.303V43.01c0-1.928.693-3.579 2.079-4.952 1.386-1.373 3.052-2.059 4.998-2.059zM85.5 138.105c-9.782 0-18.12 3.408-25.015 10.225-6.895 6.816-10.342 15.06-10.342 24.731 0 9.671 3.447 17.915 10.342 24.732 6.894 6.816 15.233 10.224 25.015 10.224s18.12-3.408 25.015-10.224c6.895-6.817 10.342-15.06 10.342-24.732 0-9.671-3.447-17.915-10.342-24.731-6.894-6.817-15.233-10.225-25.015-10.225zm85-.105c-9.782 0-18.12 3.412-25.015 10.238-5.186 5.133-8.427 11.054-9.723 17.762h69.476c-1.296-6.708-4.537-12.63-9.723-17.762C188.621 141.412 180.282 138 170.5 138z"
              fill="currentColor" fill-rule="nonzero"/>
    </g>
</svg>
