<?xml version="1.0" encoding="UTF-8"?>
<svg width="188px" height="190px" viewBox="0 0 188 190" version="1.1" xmlns="http://www.w3.org/2000/svg" xmlns:xlink="http://www.w3.org/1999/xlink">
    <title>Shape</title>
    <g id="Page-1" stroke="none" stroke-width="1" fill="none" fill-rule="evenodd">
        <g id="icon" transform="translate(-34.000000, -34.000000)" fill="currentColor" fill-rule="nonzero" stroke="currentColor" stroke-width="4">
            <path d="M204.923,35.999 C206.869,35.999 208.535,36.686 209.921,38.06 C211.307,39.432 212,41.083 212,43.01 L212,107.99 C212,109.917 211.307,111.568 209.921,112.94 C208.535,114.314 206.869,115 204.923,115 C202.977,115 201.311,114.314 199.925,112.94 C198.539,111.568 197.846,109.917 197.846,107.99 L197.846,102.293 C189,110.764 178.385,115 166,115 C154.022,115 143.689,111.024 135,103.073 L135,138.847 C135.164,138.681 135.33,138.515 135.496,138.35 C145.161,128.783 156.83,124 170.5,124 C184.17,124 195.84,128.783 205.504,138.35 C215.168,147.917 220,159.467 220,173 C220,174.925 219.308,176.573 217.923,177.944 C216.538,179.314 214.873,180 212.929,180 L135.762,180 L135.877,180.573 C137.245,187.046 140.447,192.776 145.485,197.763 C152.379,204.587 160.718,208 170.5,208 C179.34,208 186.941,205.23 193.305,199.687 C194.602,198.696 196.075,198.2 197.725,198.2 C199.67,198.2 201.335,198.885 202.719,200.256 C204.104,201.627 204.796,203.275 204.796,205.2 C204.796,207.125 204.119,208.788 202.763,210.188 C193.63,218.063 182.875,222 170.5,222 C156.829,222 145.16,217.217 135.496,207.65 C132.552,204.735 130.056,201.636 128.008,198.352 C125.959,201.642 123.458,204.748 120.504,207.668 C110.839,217.223 99.17,222 85.5,222 C71.83,222 60.16,217.223 50.496,207.668 C40.832,198.113 36,186.578 36,173.06 C36,159.544 40.832,148.008 50.496,138.453 C60.161,128.899 71.829,124.121 85.5,124.121 C98.863,124.121 110.312,128.686 119.847,137.815 L119.847,81.53 C119.847,72.833 116.735,65.405 110.513,59.246 C104.292,53.09 96.787,50.01 88,50.01 C79.213,50.01 71.708,53.089 65.487,59.247 C59.265,65.406 56.154,72.834 56.154,81.531 L56.154,110.924 C56.154,112.85 55.461,114.499 54.075,115.871 C52.689,117.243 51.023,117.929 49.077,117.929 C47.131,117.929 45.465,117.243 44.079,115.871 C42.693,114.499 42,112.85 42,110.924 L42,43.004 C42,41.079 42.693,39.429 44.079,38.058 C45.465,36.686 47.13,35.999 49.077,35.999 C51.023,35.999 52.689,36.686 54.075,38.058 C55.461,39.429 56.154,41.078 56.154,43.005 L56.154,48.696 C65,40.232 75.615,35.999 88,35.999 C100.68,35.999 111.516,40.451 120.51,49.353 C127.425,56.198 131.56,63.4106981 133.28,73.123 C135,82.8353019 137.265,85.569 143.487,91.732 C149.708,97.896 157.213,100.978 166,100.978 C174.787,100.978 182.292,97.896 188.513,91.732 C194.735,85.569 197.846,78.134 197.846,69.429 L197.846,43.01 C197.846,41.082 198.539,39.431 199.925,38.058 C201.311,36.685 202.977,35.999 204.923,35.999 Z M85.5,138.105 C75.718,138.105 67.38,141.513 60.485,148.33 C53.59,155.146 50.143,163.39 50.143,173.061 C50.143,182.732 53.59,190.976 60.485,197.793 C67.379,204.609 75.718,208.017 85.5,208.017 C95.282,208.017 103.62,204.609 110.515,197.793 C117.41,190.976 120.857,182.733 120.857,173.061 C120.857,163.39 117.41,155.146 110.515,148.33 C103.621,141.513 95.282,138.105 85.5,138.105 Z M170.5,138 C160.718,138 152.38,141.412 145.485,148.238 C140.299,153.371 137.058,159.292 135.762,166 L205.238,166 C203.942,159.292 200.701,153.37 195.515,148.238 C188.621,141.412 180.282,138 170.5,138 Z" id="Shape"></path>
        </g>
    </g>
</svg>
