<?xml version="1.0" encoding="UTF-8"?>
<svg width="196px" height="196px" viewBox="0 0 196 196" version="1.1" xmlns="http://www.w3.org/2000/svg" xmlns:xlink="http://www.w3.org/1999/xlink">
    <!-- Generator: Sketch 60 (88103) - https://sketch.com -->
    <title>Group 4</title>
    <desc>Created with Sketch.</desc>
    <defs>
        <path d="M33.128,40.127 C28.943,40.127 25.549,36.734 25.549,32.549 C25.549,28.363 28.943,24.97 33.128,24.97 C37.314,24.97 40.707,28.363 40.707,32.549 C40.707,36.734 37.314,40.127 33.128,40.127 Z M65.641,32.549 C64.714,13.885 51.096,0.063 33.155,0.063 C15.214,0.063 0.67,14.607 0.67,32.549 C0.67,50.49 15.214,65.034 33.155,65.034 L81.821,65.034 C80.325,63.891 78.893,62.644 77.543,61.284 C69.887,53.569 66.199,43.794 65.641,32.549 L65.641,32.549 Z" id="path-1"></path>
        <linearGradient x1="90.2749196%" y1="87.0741532%" x2="10.308807%" y2="28.1062369%" id="linearGradient-3">
            <stop stop-color="#4689BC" offset="0%"></stop>
            <stop stop-color="#2C5091" offset="100%"></stop>
        </linearGradient>
        <path d="M49.625,25.501 C53.81,25.501 57.203,28.894 57.203,33.079 C57.203,37.265 53.81,40.658 49.625,40.658 C45.439,40.658 42.046,37.265 42.046,33.079 C42.046,28.894 45.439,25.501 49.625,25.501 Z M17.112,33.079 C18.039,51.743 31.656,65.565 49.598,65.565 C67.539,65.565 82.084,51.021 82.084,33.079 C82.084,15.138 67.539,0.594 49.598,0.594 L0.932,0.594 C2.428,1.737 3.86,2.984 5.21,4.344 C12.866,12.059 16.553,21.834 17.112,33.079 L17.112,33.079 Z" id="path-4"></path>
        <linearGradient x1="94.3747535%" y1="75.3480389%" x2="13.7758774%" y2="15.9142449%" id="linearGradient-6">
            <stop stop-color="#4689BC" offset="0%"></stop>
            <stop stop-color="#2C5091" offset="100%"></stop>
        </linearGradient>
        <path d="M106.625,114.1 C102.439,114.1 99.046,110.707 99.046,106.522 C99.046,102.336 102.439,98.943 106.625,98.943 C110.81,98.943 114.203,102.336 114.203,106.522 C114.203,110.707 110.81,114.1 106.625,114.1 Z M33.128,40.658 C28.943,40.658 25.549,37.265 25.549,33.079 C25.549,28.894 28.943,25.501 33.128,25.501 C37.314,25.501 40.707,28.894 40.707,33.079 C40.707,37.265 37.314,40.658 33.128,40.658 Z M106.598,74.063 C95.227,74.151 84.985,69.539 77.581,62.096 C70.137,54.692 65.526,44.45 65.614,33.079 C65.754,15.14 51.069,0.594 33.131,0.594 C33.13,0.594 33.13,0.594 33.129,0.594 C33.128,0.594 33.13,0.594 33.128,0.594 C24.165,0.594 16.049,4.225 10.171,10.096 C4.3,15.974 0.67,24.089 0.67,33.053 C0.67,33.054 0.67,33.052 0.67,33.053 C0.67,33.054 0.67,33.054 0.67,33.055 C0.67,50.994 15.216,65.678 33.155,65.539 C44.526,65.45 54.768,70.062 62.172,77.505 C69.615,84.909 74.227,95.151 74.138,106.522 C73.999,124.461 88.683,139.008 106.622,139.008 C106.623,139.008 106.623,139.008 106.624,139.008 C106.625,139.008 106.623,139.008 106.624,139.008 C115.588,139.008 123.703,135.377 129.581,129.506 C135.452,123.628 139.084,115.512 139.084,106.549 C139.084,106.548 139.084,106.55 139.084,106.548 C139.084,106.548 139.084,106.547 139.084,106.546 C139.082,88.608 124.537,73.924 106.598,74.063 L106.598,74.063 Z" id="path-7"></path>
        <linearGradient x1="100.561359%" y1="96.5704336%" x2="6.14966694%" y2="9.61246695%" id="linearGradient-9">
            <stop stop-color="#4689BC" offset="0%"></stop>
            <stop stop-color="#2C5091" offset="100%"></stop>
        </linearGradient>
    </defs>
    <g id="Page-1" stroke="none" stroke-width="1" fill="none" fill-rule="evenodd">
        <g id="Group-4">
            <rect id="Rectangle" fill="#FFFFFF" x="0" y="0" width="196" height="196"></rect>
            <g id="Group-3" transform="translate(28.000000, 28.000000)">
                <g id="Group-2">
                    <g id="Group-14" transform="translate(0.000000, 74.000000)">
                        <mask id="mask-2" fill="white">
                            <use xlink:href="#path-1"></use>
                        </mask>
                        <g id="Clip-13"></g>
                        <path d="M33.128,40.127 C28.943,40.127 25.549,36.734 25.549,32.549 C25.549,28.363 28.943,24.97 33.128,24.97 C37.314,24.97 40.707,28.363 40.707,32.549 C40.707,36.734 37.314,40.127 33.128,40.127 Z M65.641,32.549 C64.714,13.885 51.096,0.063 33.155,0.063 C15.214,0.063 0.67,14.607 0.67,32.549 C0.67,50.49 15.214,65.034 33.155,65.034 L81.821,65.034 C80.325,63.891 78.893,62.644 77.543,61.284 C69.887,53.569 66.199,43.794 65.641,32.549 L65.641,32.549 Z" id="Fill-12" fill="url(#linearGradient-3)" mask="url(#mask-2)"></path>
                    </g>
                    <g id="Group-17" transform="translate(57.000000, 0.000000)">
                        <mask id="mask-5" fill="white">
                            <use xlink:href="#path-4"></use>
                        </mask>
                        <g id="Clip-16"></g>
                        <path d="M49.625,25.501 C53.81,25.501 57.203,28.894 57.203,33.079 C57.203,37.265 53.81,40.658 49.625,40.658 C45.439,40.658 42.046,37.265 42.046,33.079 C42.046,28.894 45.439,25.501 49.625,25.501 Z M17.112,33.079 C18.039,51.743 31.656,65.565 49.598,65.565 C67.539,65.565 82.084,51.021 82.084,33.079 C82.084,15.138 67.539,0.594 49.598,0.594 L0.932,0.594 C2.428,1.737 3.86,2.984 5.21,4.344 C12.866,12.059 16.553,21.834 17.112,33.079 L17.112,33.079 Z" id="Fill-15" fill="url(#linearGradient-6)" mask="url(#mask-5)"></path>
                    </g>
                    <g id="Group-20">
                        <mask id="mask-8" fill="white">
                            <use xlink:href="#path-7"></use>
                        </mask>
                        <g id="Clip-19"></g>
                        <path d="M106.625,114.1 C102.439,114.1 99.046,110.707 99.046,106.522 C99.046,102.336 102.439,98.943 106.625,98.943 C110.81,98.943 114.203,102.336 114.203,106.522 C114.203,110.707 110.81,114.1 106.625,114.1 Z M33.128,40.658 C28.943,40.658 25.549,37.265 25.549,33.079 C25.549,28.894 28.943,25.501 33.128,25.501 C37.314,25.501 40.707,28.894 40.707,33.079 C40.707,37.265 37.314,40.658 33.128,40.658 Z M106.598,74.063 C95.227,74.151 84.985,69.539 77.581,62.096 C70.137,54.692 65.526,44.45 65.614,33.079 C65.754,15.14 51.069,0.594 33.131,0.594 C33.13,0.594 33.13,0.594 33.129,0.594 C33.128,0.594 33.13,0.594 33.128,0.594 C24.165,0.594 16.049,4.225 10.171,10.096 C4.3,15.974 0.67,24.089 0.67,33.053 C0.67,33.054 0.67,33.052 0.67,33.053 C0.67,33.054 0.67,33.054 0.67,33.055 C0.67,50.994 15.216,65.678 33.155,65.539 C44.526,65.45 54.768,70.062 62.172,77.505 C69.615,84.909 74.227,95.151 74.138,106.522 C73.999,124.461 88.683,139.008 106.622,139.008 C106.623,139.008 106.623,139.008 106.624,139.008 C106.625,139.008 106.623,139.008 106.624,139.008 C115.588,139.008 123.703,135.377 129.581,129.506 C135.452,123.628 139.084,115.512 139.084,106.549 C139.084,106.548 139.084,106.55 139.084,106.548 C139.084,106.548 139.084,106.547 139.084,106.546 C139.082,88.608 124.537,73.924 106.598,74.063 L106.598,74.063 Z" id="Fill-18" fill="url(#linearGradient-9)" mask="url(#mask-8)"></path>
                    </g>
                </g>
            </g>
        </g>
    </g>
</svg>